<?xml version="1.0" encoding="UTF-8"?><svg id="bat" xmlns="http://www.w3.org/2000/svg" viewBox="0 0 391.66 297.85"><defs><style>.cls-1{fill:#fff;}.cls-2{fill:#c38c88;}.cls-3{fill:#231f20;}</style></defs><g id="bat-2"><path class="cls-3" d="M184.43,188.49c-2.01-24.75-7.09-30.97-9.1-55.72,7.22,7.86,19.45,10.61,29.34,6.6s16.75-14.5,16.46-25.17c8.92-3.34,15.01,9.29,23.44,13.74,6.66,3.51,15.19,1.41,21.06-3.3,5.87-4.71,9.57-11.56,12.74-18.38,10.12-21.73,16.51-45.18,18.82-69.04,.55-5.68,.96-11.67,4.07-16.45,7.15-11.01,23.19-9.69,36.31-9.28,18.6,.58,37.33-3.4,54.09-11.49-9.87,9.37-19.88,18.9-26.84,30.59-6.96,11.7-10.62,26.05-6.77,39.1,1.01,3.43,2.54,6.83,2.35,10.4-.32,6.3-5.67,10.96-10.13,15.43-18.03,18.08-26.5,45.2-21.97,70.33,1.58,8.78,4.65,17.4,4.57,26.32-.09,8.92-4.4,18.69-12.85,21.54-6.05,2.04-13.21,.24-18.66,3.58-7.53,4.61-6.97,16.07-2.69,23.8s11.2,13.94,14.31,22.21c3.11,8.27-.21,20.14-8.99,21.11-2.97,.33-5.93-.69-8.66-1.91-9.18-4.13-17.03-10.76-26.09-15.15-9.05-4.39-20.44-6.25-28.83-.69-11.44,7.58-14.6,26.79-28.23,28.4-9.4,1.11-16.73-7.35-24.23-13.11-20.08-15.43-52.2-11.72-68.23,7.88-2.86,3.5-5.89,7.77-10.41,8.02-4.51,.25-8.21-3.95-9.29-8.33s-.3-8.98-.09-13.49c.37-8.15-1.44-16.85-7.14-22.68-12.15-12.43-33.42-5.44-47.39,4.88-13.98,10.32-28.04,24-45.4,23.15,20.26-29.39,40.51-58.78,60.77-88.16,1.12-1.63,2.27-3.28,3.82-4.51,6.63-5.25,16.13-.52,23.57,3.5,27.02,14.61,66.6,4.25,96.28-3.69"/><path class="cls-2" d="M228.82,159.73c-.34-3.23-.28-6.58,.89-9.61,1.17-3.03,3.63-5.7,6.78-6.47,1.59-.39,3.46-.22,4.6,.96,.81,.83,1.13,2.03,1.17,3.19,.11,3.18-1.71,6.18-4.11,8.26-2.4,2.08-6.6,3.4-9.51,4.69"/><path class="cls-2" d="M216.15,166.93c-2.35-2.25-5.02-4.26-8.14-5.2s-6.72-.63-9.27,1.38c-1.29,1.02-2.29,2.6-2.06,4.22,.16,1.15,.91,2.14,1.81,2.88,2.45,2.03,5.93,2.44,9.05,1.82s6.74-3.12,9.54-4.63"/><path class="cls-1" d="M309.62,53.23c-.44-5.7,1.18-13.67,2.58-19.22,.43-1.7,.98-3.45,2.18-4.74,3.45-3.69,9.89-1.63,14.28-4.13,1.11-.63,2.15-1.58,3.43-1.59,1.9-.02,3.2,2.25,2.76,4.09s-2.07,3.18-3.8,3.97c-1.72,.79-3.61,1.19-5.33,1.98-5.56,2.56-8.43,8.64-10.86,14.25-1.05,2.43-2.6,5.22-5.24,5.38"/><path class="cls-1" d="M94.91,209.79c-4.85-3.04-12.66-5.29-18.22-6.63-1.71-.41-3.51-.73-5.21-.27-4.87,1.34-6.03,8.01-10.27,10.74-1.08,.69-2.4,1.18-3,2.3-.89,1.67,.51,3.88,2.35,4.34s3.78-.36,5.28-1.52c1.5-1.16,2.72-2.65,4.22-3.8,4.84-3.74,11.56-3.47,17.66-3.02,2.64,.19,5.83,.12,7.19-2.15"/></g></svg>