<?xml version="1.0" encoding="UTF-8"?><svg id="cat" xmlns="http://www.w3.org/2000/svg" viewBox="0 0 357.11 380.18"><defs><style>.cls-1{fill:#fff;}.cls-2{fill:#f1944b;}.cls-3{fill:#231f20;}</style></defs><g id="cat-2"><path class="cls-3" d="M92.79,185.88c-36.31-2.88-62.05-31.04-69.16-66.77-1.62-8.13-2.1-16.69-5.95-24.03-2.08-3.96-5.05-7.38-7.59-11.07C3.85,74.92,.3,64.01,0,52.99c16.77-3.46,34.57-1.73,50.35,4.91,14.28-9.8,30.79-16.35,47.91-19.01,3.63-.56,7.43-1.01,10.51-3.01,2.09-1.36,3.68-3.33,5.23-5.28,6.24-7.8,12.48-15.6,18.73-23.39,12.1,14.9,14.43,37.06,5.67,54.15,13.31,10.15,20.32,27.94,17.53,44.44,13.4-11.03,32.44-13.52,49.34-9.54,16.89,3.98,31.91,13.74,45.11,25.01,15.91,13.57,30.29,30.7,33.84,51.31,2.22,12.9,.02,26.15,.94,39.22,.75,10.6,3.54,20.93,5.92,31.29,8.2,35.78,11.5,72.68,9.76,109.35-.3,6.44-.83,13.1-3.92,18.75s-9.46,10.02-15.78,8.78c-6.32-1.24-10.58-9.75-6.44-14.69,1.61-1.92,4.04-2.96,5.82-4.73,3.93-3.9,3.79-10.2,3.3-15.71-2.52-28.13-7.37-56.04-14.49-83.37-9.6,22.72-5.42,48.56-2.38,73.04,1.02,8.2,1.82,16.89-1.66,24.38-3.48,7.49-12.84,12.87-20.21,9.15-.69-.35-1.36-.78-1.79-1.42-1.45-2.14,.47-4.87,1.96-6.98,6.3-8.93,5.67-20.84,4.74-31.73-2.44-28.66-5.22-57.59-14.28-84.89-4.23-12.76-10.25-25.63-21.01-33.7-17.01-12.75-44.16-8.65-56.65,8.55-10.74,14.8-10.2,34.75-8.27,52.93,2.15,20.22,5.46,40.4,11.51,59.81,2.68,8.59,5.92,17.31,5.34,26.29s-6.33,18.4-15.22,19.81c-3.74,.59-8.35-.96-9.17-4.65-.79-3.52,2.18-6.65,3.33-10.07,1.37-4.09,.05-8.55-1.26-12.66-7.31-22.93-14.62-45.86-21.92-68.78-4.03,22.04-4.2,44.65-2.41,66.99,.57,7.07,1.26,14.55-1.9,20.9-3.15,6.35-11.82,10.5-17.57,6.36-2.1-1.52-3.53-4.11-3.19-6.68,.19-1.47,.91-2.8,1.5-4.15,4.79-11.07,.75-23.71-2.42-35.35-12.61-46.32-20.44-97.78-3.58-142.73"/><path class="cls-3" d="M279.6,185.01c.02-.25,.05-.51,.09-.76l-.36,2.66c.25-1.76,.73-3.45,1.4-5.1l-1.01,2.39c.9-2.12,2.1-4.07,3.5-5.89l-1.56,2.02c1.94-2.45,4.2-4.6,6.67-6.51l-2.02,1.56c6.38-4.84,13.82-7.95,20.58-12.17,6.54-4.07,12.52-9.16,17.5-15.03,10.05-11.84,16.76-25.74,21.96-40.28,2.65-7.42,4.98-14.99,6.79-22.65,2.15-9.05,3.6-18.47,3.35-27.79-.42-16.1-5.95-32.93-17.96-44.14-12.55-11.72-30.76-15.88-47.29-11.47-15.03,4-27.99,15.51-34.13,29.76-3.47,8.06-5.69,16.9-4.74,25.74,.57,5.32,1.76,10.21,4.27,14.98,1.77,3.36,4.24,6.51,7.03,9.08s6.02,4.93,9.5,6.53c2.09,.96,4.23,1.88,6.45,2.51s4.45,.92,6.71,1.19c7.66,.94,16-1.23,22.37-5.57,7.26-4.95,12.57-11.86,15.44-20.17,2.91-8.44,2.17-17.98-1.85-25.91-2.09-4.13-5.7-8.06-9.83-10.2-5.04-2.62-10.39-3.33-15.95-2.29-5.03,.95-9.64,4.37-12.29,8.69-2.66,4.34-3.19,9.61-2.18,14.51,.96,4.64,4.17,9.01,8.33,11.29,2.32,1.27,5.13,1.72,7.71,1.01,2.32-.64,4.83-2.43,5.98-4.6,2.47-4.68,1.31-11-3.59-13.68-.34-.19-.66-.39-.98-.62l2.02,1.56c-.45-.36-.84-.75-1.2-1.2l1.56,2.02c-.4-.54-.73-1.09-1-1.71l1.01,2.39c-.29-.72-.5-1.45-.62-2.22l.36,2.66c-.12-.88-.13-1.76-.03-2.64l-.36,2.66c.12-.89,.34-1.73,.67-2.56l-1.01,2.39c.32-.72,.71-1.39,1.19-2.01l-1.56,2.02c.41-.49,.85-.91,1.34-1.31l-2.02,1.56c.65-.49,1.33-.9,2.08-1.24l-2.39,1.01c.97-.4,1.96-.67,3-.81l-2.66,.36c1.06-.12,2.1-.11,3.16,.01l-2.66-.36c1.18,.17,2.32,.47,3.43,.92l-2.39-1.01c.98,.43,1.9,.95,2.76,1.59l-2.02-1.56c.99,.78,1.86,1.65,2.65,2.63l-1.56-2.02c.92,1.2,1.67,2.49,2.28,3.87l-1.01-2.39c.79,1.88,1.31,3.84,1.58,5.86l-.36-2.66c.25,2.05,.24,4.1,0,6.15l.36-2.66c-.32,2.36-.95,4.63-1.85,6.83l1.01-2.39c-.98,2.3-2.24,4.45-3.76,6.44l1.56-2.02c-1.47,1.88-3.14,3.56-5.01,5.04l2.02-1.56c-1.88,1.45-3.91,2.66-6.1,3.59l2.39-1.01c-1.97,.81-4.01,1.36-6.12,1.66l2.66-.36c-2.29,.29-4.59,.27-6.88-.04l2.66,.36c-2.41-.35-4.73-1.01-6.98-1.94l2.39,1.01c-2.24-.96-4.34-2.18-6.28-3.65l2.02,1.56c-1.92-1.49-3.64-3.18-5.13-5.1l1.56,2.02c-1.26-1.66-2.31-3.43-3.14-5.34l1.01,2.39c-1.02-2.42-1.65-4.95-2.01-7.54l.36,2.66c-.41-3.32-.33-6.65,.11-9.97l-.36,2.66c.56-3.87,1.6-7.62,3.11-11.23l-1.01,2.39c1.56-3.66,3.57-7.09,5.98-10.24l-1.56,2.02c2.36-3.03,5.06-5.75,8.1-8.1l-2.02,1.56c2.78-2.11,5.78-3.88,9-5.24l-2.39,1.01c3.24-1.34,6.62-2.25,10.09-2.74l-2.66,.36c3.73-.5,7.49-.51,11.23-.03l-2.66-.36c3.59,.49,7.08,1.42,10.43,2.81l-2.39-1.01c2.97,1.27,5.76,2.89,8.33,4.87l-2.02-1.56c2.62,2.06,4.96,4.43,7.01,7.06l-1.56-2.02c2.51,3.27,4.55,6.85,6.16,10.65l-1.01-2.39c1.96,4.69,3.25,9.61,3.94,14.64l-.36-2.66c.9,6.83,.65,13.74-.26,20.55l.36-2.66c-1.14,8.18-3.22,16.19-5.64,24.08-1.98,6.46-4.2,12.86-6.82,19.09l1.01-2.39c-3.63,8.58-8.04,16.85-13.75,24.24l1.56-2.02c-3.61,4.62-7.69,8.84-12.32,12.45l2.02-1.56c-5.96,4.59-12.76,7.73-19.23,11.49-7.23,4.19-13.8,9.44-18.39,16.51-2.92,4.5-4.35,9.48-4.9,14.76-.25,2.4,1.29,5.43,2.93,7.07,1.73,1.73,4.58,3.04,7.07,2.93s5.27-.97,7.07-2.93c1.9-2.06,2.64-4.29,2.93-7.07h0Z"/><path class="cls-2" d="M98.38,103.94c-.91-7.82,3.41-15.83,10.12-19.95,6.71-4.13,15.4-4.49,22.73-1.59,.66,.26,1.36,.6,1.65,1.24,.24,.53,.14,1.14,.02,1.71-1.03,5.15-2.99,10.4-7.05,13.73-2.14,1.75-4.73,2.86-7.32,3.84-6.06,2.29-14.03,3.16-20.15,1.03"/><path class="cls-2" d="M44.14,118.35c.89-7.82,6.92-14.64,14.39-17.13,7.47-2.49,16.02-.87,22.49,3.62,.58,.4,1.19,.89,1.32,1.58,.11,.57-.13,1.14-.37,1.67-2.17,4.78-5.27,9.45-9.98,11.77-2.48,1.22-5.26,1.71-8,2.07-6.42,.85-14.38-.12-19.86-3.58"/><ellipse class="cls-3" cx="63.25" cy="111.14" rx="7.08" ry="10.43" transform="translate(-21.31 15.21) rotate(-11.75)"/><ellipse class="cls-3" cx="115.63" cy="92.83" rx="7.08" ry="10.43" transform="translate(-16.48 25.5) rotate(-11.75)"/><path class="cls-1" d="M172.33,111.44c-.21,1.73,.82,2.41,1.82,2.99,1.54,.89,3.37,.09,5.03-.54s3.18-1.61,4.88-2.11c7.54-2.23,15.55,5.21,22.99,2.71,.47-.16,.94-.36,1.28-.72,.76-.8,.63-2.16-.01-3.06s-1.67-1.44-2.67-1.91c-7.26-3.4-15.48-4.7-23.43-3.7-2.07,.26-4.16,.68-5.99,1.68s-3.39,2.64-3.89,4.67"/></g></svg>