<?xml version="1.0" encoding="UTF-8"?><svg id="corn" xmlns="http://www.w3.org/2000/svg" viewBox="0 0 365.08 420.47"><defs><style>.cls-1{fill:#f1b08d;}.cls-2{fill:#f1944b;}.cls-3{fill:#655c37;}.cls-4{fill:#abd3bc;}</style></defs><g id="corn-2"><path class="cls-1" d="M139.75,376.53c-15.86,6.94-33.67,8.92-50.26,7.5s-33.54-11.16-43.12-30.12c-9.22-18.24-13.98-33.83-14.58-56.13-.33-12.01-.02-29.27,5.19-43.88,4.82-13.5,9.17-27.25,15.93-39.02,42.2-73.49,101.33-123.5,159.18-171.98,19.4-16.25,39.18-32.73,61.18-40.11,14.26-4.78,31.15-4.59,41.42,10.04,6.01,8.56,8.67,20.69,9.77,32.57,2.92,31.75-4.05,64.04-15.3,91.94-11.25,27.9-26.59,52.07-41.82,76.01-12.61,19.83-25.23,39.67-37.84,59.5-26.02,40.92-53.39,83.19-89.73,103.68"/><path class="cls-2" d="M224.2,174.93c-6.46-1.18-13.43,1.07-17.58,6.28s-5.06,12.8-2.24,19.09l2.82-3.67c-6.53-1.99-14-.27-18.93,4.48s-6.88,12.15-5.17,18.76l3.08-3.08c-9.78-1.5-20.24,4.9-21.96,14.99-1.69,9.92,4.42,20.2,14.57,22.17,5.76,1.12,11.57-.24,16.18-3.87,1.06-.84,.88-2.66,0-3.54-1.05-1.05-2.47-.84-3.54,0-5.78,4.56-15.12,3.51-19.56-2.37-2.19-2.9-3.19-6.57-2.93-10.18s2.14-6.83,4.88-9.12c2.96-2.48,7.17-3.85,11.03-3.26,1.84,.28,3.59-1.07,3.08-3.08-1.27-4.92,.2-10.36,3.88-13.89s9.23-4.66,14.07-3.19c2.28,.69,3.66-1.81,2.82-3.67-1.91-4.25-1.21-9.68,1.69-13.32s7.91-5.54,12.49-4.71c1.33,.24,2.7-.36,3.08-1.75,.33-1.21-.41-2.83-1.75-3.08h0Z"/><path class="cls-2" d="M210.74,85.99c2.01,4.28,1.4,9.78-1.53,13.49s-7.75,5.56-12.28,4.81c-2.02-.33-4.07,1.66-2.82,3.67,2.77,4.48,2.97,10.33,.23,14.89-2.54,4.21-7.3,6.8-12.19,6.83-2.06,0-2.89,2.08-2.16,3.76,2.87,6.58-.3,15.01-6.75,18.07-3.42,1.62-7.47,1.71-11.02,.5s-6.14-3.83-7.7-7.13c-1.63-3.47-1.86-7.89-.32-11.44,.54-1.24,.36-2.68-.9-3.42-1.06-.62-2.88-.35-3.42,.9-3.95,9.08-.43,20.81,8.89,25.06s21.08,.72,25.37-8.9c2.32-5.21,2.45-10.93,.17-16.17l-2.16,3.76c6.64-.03,13.07-3.59,16.51-9.3,3.63-6.03,3.45-13.98-.23-19.94l-2.82,3.67c6.43,1.06,13.26-1.2,17.37-6.39,4.35-5.48,5.03-12.98,2.08-19.26-.57-1.22-2.33-1.53-3.42-.9-1.25,.73-1.47,2.19-.9,3.42h0Z"/><path class="cls-2" d="M302.25,45.1c-5.01,.07-9.93,2.66-12.54,7s-2.44,10.29,.53,14.48l2.16-3.76c-5.07-.49-10.41,1.71-13.57,5.72-3.44,4.37-4,10.23-1.63,15.22l2.16-3.76c-7.69,.32-14.98,6.58-14.85,14.6s6.83,14.23,14.68,14.16c4.28-.04,8.56-1.76,11.48-4.91,2.19-2.36-1.34-5.9-3.54-3.54-4.65,5-13.33,4.56-16.61-1.71s2.16-13.33,8.83-13.6c2-.08,2.98-2.03,2.16-3.76-1.48-3.13-.9-7.09,1.31-9.73,2.34-2.8,6.01-4.03,9.58-3.69,1.82,.17,3.21-2.28,2.16-3.76-1.99-2.79-2.34-6.44-.53-9.43,1.7-2.83,4.97-4.48,8.22-4.52s3.22-5.05,0-5h0Z"/><path class="cls-3" d="M0,113.3c20.53-1.88,39.2,15.16,45.33,34.85s2.38,41.06-3.36,60.87c-8.01,27.61-19.75,54.02-27.95,81.58s-12.77,57.09-6.02,85.03c3.31,13.7,9.74,27.29,21.05,35.69,13.87,10.3,33.01,11.12,49.6,6.32,16.6-4.8,31.26-14.53,45.63-24.12,18.83-12.56,37.66-25.13,56.5-37.69,27.64-18.44,55.6-37.05,86.71-48.71,31.12-11.66,66.15-15.92,97.58-5.13-10.01-27.2-28.55-52.54-55.06-64.27-16.55-7.32-35.06-8.92-53.17-8.86-36.95,.12-74.89,7.2-105.78,27.48-4.62,3.03-9.12,6.37-13.71,9.5-12.31,8.36-29.37,2.5-33.51-11.8-3.57-12.32-3.86-26.07-2.98-38.99,1.48-21.68,5.32-44.04-1.38-64.71-6.34-19.57-22.36-35.74-41.87-42.25-19.51-6.52-40.8-6.63-57.62,5.21"/><path class="cls-4" d="M62.09,390.98c6.05,5.54,16.06,6.41,24.3,3.9,8.24-2.51,15.01-7.83,21.09-13.4s11.76-11.6,18.84-16.12c8.8-5.62,19.44-8.7,27.9-14.71,2.81-2,5.58-5.17,4.18-8.11-.54-1.13-1.62-1.97-2.75-2.66-8.53-5.21-20.56-3.06-29.16,2.14-8.6,5.2-14.82,12.9-21.9,19.69-7.07,6.79-15.85,13.06-26.18,13.84-3.55,.27-7.15-.13-10.67,.4-3.52,.53-7.15,2.29-8.27,5.31-1.28,3.44-.37,7.32,2.62,9.74"/></g></svg>