<?xml version="1.0" encoding="UTF-8"?><svg id="Graveyard" xmlns="http://www.w3.org/2000/svg" viewBox="0 0 391.66 297.85"><defs><style>.cls-1{fill:#c18b87;}.cls-2,.cls-3{fill:#27141a;}.cls-3,.cls-4{opacity:.2;}</style></defs><g><g class="cls-4"><path class="cls-2" d="M157.02,177.52c-13.22,0-24.62,7.55-29.77,18.42l-.02,83.22,59.54,.02,.02-83.22c-5.15-10.88-16.54-18.44-29.76-18.44Z"/><path class="cls-2" d="M136.22,196.07c2.07-4.62,5.16-5.79,7.22-6.83,1.45-.73,3.04-1.36,4.65-1.16s3.19,1.47,3.2,3.09c.01,2.06-2.19,3.28-4,4.27-1.75,.96-3.43,2.13-4.6,3.74-3.59,4.94-1.38,12.13-3.9,17.69-.45,1-1.1,1.96-2.07,2.46s-2.33,.37-2.96-.53c-.38-.53-.44-1.22-.48-1.88-.43-7.06,.58-14.2,2.95-20.86"/></g><g><path class="cls-2" d="M157.07,173.3c-13.22,0-24.62,7.55-29.77,18.42l-.02,83.22,59.54,.02,.02-83.22c-5.15-10.88-16.54-18.44-29.76-18.44Z"/><path class="cls-1" d="M136.27,191.84c2.07-4.62,5.16-5.79,7.22-6.83,1.45-.73,3.04-1.36,4.65-1.16s3.19,1.47,3.2,3.09c.01,2.06-2.19,3.28-4,4.27-1.75,.96-3.43,2.13-4.6,3.74-3.59,4.94-1.38,12.13-3.9,17.69-.45,1-1.1,1.96-2.07,2.46s-2.33,.37-2.96-.53c-.38-.53-.44-1.22-.48-1.88-.43-7.06,.58-14.2,2.95-20.86"/></g></g><g><path class="cls-3" d="M243.31,140.12c-1.01,18.34-10.47,25.57-10.47,25.57v93.91h58.41v-93.91c-7.87-4.43-9.09-25.65-9.09-25.65"/><g><path class="cls-2" d="M282.16,135.61l-16.97,.03v-15.51h8.09c1.74,0,3.15-1.52,3.15-3.4s-1.41-3.4-3.15-3.4h-8.09v-8.75c0-1.88-1.41-3.4-3.15-3.4s-3.15,1.52-3.15,3.4v8.75h-8.09c-1.74,0-3.15,1.52-3.15,3.4s1.41,3.4,3.15,3.4h8.09v15.52l-15.59,.03c-1.01,18.34-10.47,25.57-10.47,25.57v93.91h58.41v-93.91c-7.87-4.43-9.09-25.65-9.09-25.65Z"/><g><path class="cls-1" d="M256.22,198.68l-2.95,2.64-1.85-.31-1.26-5.58-2.23-1.64-3.09,.45,.07,5.89,1.5,.5,.19,.9-5.11-.07-.05-.64,1.4-.55-.29-12.57-.85-.93-1.71-.19,.07-1.28,1.95-.05,1,.4,.59-.52,6.46,.1,2.99,2.75-.43,3.97-2.07,1.57,1.76,1.69,.17,4.27,.52,.19,1.71-2.57,1.5,1.57Zm-4.82-8.43l-.86-3.06-3.49-.62-2.45,.38,.4,5.27,4.28,.29,2.11-2.26Z"/><path class="cls-1" d="M258.12,198.82l1.83,.48,.05,2.16-2.07,.45-1-1.78,1.19-1.31Z"/><path class="cls-1" d="M266.44,201.13l.05,.71-4.54-.36-.02-.69,1.64-.52-.4-14.23-1.73-.59,.05-.64,5.08-.05,.14,.85-1.59,.48-.07,14.51,1.4,.52Z"/><path class="cls-1" d="M269.31,198.82l1.83,.48,.05,2.16-2.07,.45-1-1.78,1.19-1.31Z"/><path class="cls-1" d="M276.25,195.21v5.13l1.43,.47,.14,.86-4.94-.12-.05-.57,1.69-.67-.17-13.87-.81-.64-.93-.12,.12-.88,1.97-.07,1.09,.57,2.19-.19,5.08,1.02,1.02,5.84-2.97,2.9-4.87,.33Zm-.14-8.1l.29,6.25,4.2-.02,2.04-2.54-1.31-3.56-3.16-.76-2.07,.64Z"/></g><path class="cls-1" d="M238.05,167.79c-.16-1.93-.28-4.04,.69-5.71,.89-1.52,2.52-2.42,3.72-3.71,2.97-3.19,2.85-8.21,5.18-11.89,.42-.66,1.09-1.35,1.86-1.2,.47,.09,.83,.47,1.06,.89,.67,1.19,.54,2.68,.12,3.99s-1.11,2.51-1.52,3.81c-.77,2.42-.58,5.08-1.53,7.43-1.1,2.72-3.62,4.71-4.63,7.47-.42,1.14-.74,2.57-1.9,2.95-.93,.31-1.96-.32-2.44-1.17s-.55-1.87-.61-2.84"/></g></g><g><g class="cls-4"><path class="cls-2" d="M358.59,172.11c-9.47,0-17.63,5.41-21.32,13.19l-.02,59.59h42.63s.02-59.58,.02-59.58c-3.69-7.79-11.84-13.2-21.31-13.2Z"/><path class="cls-2" d="M343.7,185.39c1.48-3.31,3.69-4.15,5.17-4.89,1.04-.52,2.18-.97,3.33-.83s2.28,1.06,2.29,2.22c0,1.47-1.57,2.35-2.86,3.05-1.25,.68-2.45,1.53-3.29,2.68-2.57,3.54-.99,8.68-2.8,12.66-.32,.71-.79,1.41-1.48,1.76s-1.67,.26-2.12-.38c-.27-.38-.32-.88-.35-1.34-.31-5.05,.42-10.17,2.12-14.94"/></g><g><path class="cls-2" d="M358.63,169.08c-9.47,0-17.63,5.41-21.32,13.19l-.02,59.59h42.63s.02-59.58,.02-59.58c-3.69-7.79-11.84-13.2-21.31-13.2Z"/><path class="cls-1" d="M343.74,182.36c1.48-3.31,3.69-4.15,5.17-4.89,1.04-.52,2.18-.97,3.33-.83s2.28,1.06,2.29,2.22c0,1.47-1.57,2.35-2.86,3.05-1.25,.68-2.45,1.53-3.29,2.68-2.57,3.54-.99,8.68-2.8,12.66-.32,.71-.79,1.41-1.48,1.76s-1.67,.26-2.12-.38c-.27-.38-.32-.88-.35-1.34-.31-5.05,.42-10.17,2.12-14.94"/></g></g></svg>