<?xml version="1.0" encoding="UTF-8"?><svg xmlns="http://www.w3.org/2000/svg" viewBox="0 0 378.601801430904743 441.492396134757655"><defs><style>.cls-1{fill:#fff;}.cls-2{fill:#e6d9d3;}.cls-3{fill:#655d37;}.cls-4{fill:#cf8a4c;}.cls-5{fill:#c18b87;}.cls-6{fill:#231f20;}.cls-7{fill:#453636;}.cls-8,.cls-9{fill:#27141a;}.cls-9,.cls-10{opacity:.2;}</style></defs><g id="background"><g id="r_tree"><path class="cls-8" d="M289.055743640334185,248.594328478802709c-1.691367509998599,31.290692671411307,.222569401783403,62.822905117956907,5.657913992958129,93.21443404533602,.964558660814873,5.393305768460777,2.993870282654825,11.838272998687899,7.254385977774291,12.148524583250037,2.692986194098921,.196102682366472,5.165946995903141-2.450534178089583,6.37171892268816-5.623195747111822,1.205771926786838-3.17266156902042,1.406772377096786-6.791103966033916,1.56703233632652-10.302756603739908,1.541893468312992-33.786261606732296,1.143663837581698-68.684943657754047-8.836143810352951-99.665925500154117-1.390084867374753-4.315335259467247-4.412239918181513-9.318520526736393-7.759322774774773-7.449319490677226-1.078285306542966,.602175377804087-1.871867208968979,1.837328064571921-2.535752136558585,3.100073955989501-2.141230656581683,4.072739638027997-1.565152973313161,9.685422489883422-1.71983250806079,14.578164757107515"/><path class="cls-3" d="M266.722312233532648,16.39391326157056c-4.800570908062582,10.957242044552004-10.189217334169371,35.899312712965184-16.887966330805284,46.438205244878191-7.973741391348085,12.544793833271797-16.639819138503299,25.441191717937727-18.602196348834696,40.175570862025779-.551694902458621,4.142363754087455-.337913769497391,8.778496033550255,2.450994737897418,11.890655097467061,3.617540933633791,4.036834563901721,10.021892239614317,3.870197493982232,15.209642619100123,2.298612024976137,7.949085953188842-2.408108922374595,15.510166164898692-7.391407491206337,24.707676634468953-1.105502872631405,4.582674890241833,9.987047370753316-3.546644743011711,13.014222089462237-9.879915259931295,15.369206278831371-18.140649512226446,6.745469573157607-33.368846961699091,20.972069083060887-41.331042930789408,38.612585799645785-3.465323848035041,7.677543866281667-4.8630257228142,18.275897494178025,1.984690900573696,23.181192513252427,4.726488315041934,3.385773226993479,11.34878325565478,2.30381720054811,16.630949198590315-.125557924336135,8.251089421766665-3.794843178156952,15.251999276597417-10.497163149841072,26.114870246885403-7.739680960589794,.185748446219804,.047151258036138,.370147644824101,.132969557628712,.525991513528425,.244497199918442,10.826130791818287,7.747580012945946,3.073235627582108,17.824394985354957-3.648812534658646,24.521065111546704-18.044821067907833,17.976695555814331-34.672898402695864,39.745094079140472-36.783982975573963,65.128562447871445-.190087431639768,2.285590896171925-.232185700295304,4.706456683285069,.849541901940029,6.728812759947687,1.118249871125954,2.090636240844105,3.281996291807445,3.429930364094616,5.509008150476802,4.243355397808045,7.070215766912952,2.582424768819692,15.016640278669001,.674341556325089,21.874392434399851-2.428576930480631,6.85775215573085-3.102918486807539,13.193873707226885-7.373851884391115,20.314136669505388-9.814901476922387,22.082719332423949-7.570652663540386,45.565887286626094,3.683749536967298,67.7992652570465,10.799800496399257,7.734226406751986,2.47542947166221,17.0795397926031,4.167883638679996,23.246544431676739-1.115491910722994,3.250113443900773-2.784426343314408,4.890142170244872-7.006918583687366,5.879972522690878-11.170631239067006,1.800117845559726-7.572179277944088,1.676630787325848-16.103413289791206-2.781811097403988-22.483116973948199-4.811783072838807-6.885309586585208-13.539538209757666-9.800450993430786-21.826911524798561-11.171650026966745-8.287373315040895-1.371199033537778-16.926431348791084-1.684527335002713-24.569762995917699-5.168809841414259-3.003733913415999-1.369279707780152-5.923073537021992-3.357095950590519-7.342228154557233-6.337589702423429-1.670641243166756-3.508663129765409-.925847828466431-7.755847878037457,.829825164757494-11.222744396771304,6.428525958081082-12.694296976696933,23.449466687174208-15.671922204754082,37.521738430426922-13.564248513056555,8.786940952866644,1.316063277432477,18.856017012365555,3.75483230241025,23.771226140986983-9.121751674611914,.234105189421825-.613295396425201,.338933980530783-1.277210166481382,.308511640805591-1.932962379009041-.734157426679303-15.824731472375788-13.264422057807678-24.570643702290909-25.83699798539601-30.413266838132586-9.431432035438775-4.382896816987341-19.51691735438726-7.747145395172083-27.704099985645371-14.160548182293496-1.892356259078952-1.482371120192511-3.836713937911554-3.578801165092045-3.394609160633991-5.941634125109886,.239867715023138-1.281975298194993,1.160395863160375-2.333387957999548,2.175537934810563-3.152218665338296,11.923287083209289-9.617524411027262,33.455074465326106,6.844967407925651,43.029742633747446-8.352065114585457,.155679746219903-.24709683142828,.297371451368235-.5114992679637,.418588982116489-.777204626819184,5.052897651732565-11.075807067860296,.078697875249418-23.735754813072163-8.481290355806777-31.616632789900905-9.65722120679311-8.891061514529611-34.778743858551024-14.648968864665221-38.860946230090121-17.368642322364394-13.206753200052844-8.890496404836995,9.524254342260974-9.279431339939038,14.812038751424552-14.361224260857853,2.924797584892076-2.81085954336686,3.219881280885602-7.593180945307722,1.620585545675567-11.321132501582724s-4.732774690904989-6.572212603961816-8.006392311321179-8.967791308552478c-16.39246328745503-11.995730692072357-39.475994508266012-16.875560167060939-46.717761711543062-37.195910323445787-3.918592469639407-10.47658475551907-5.788651289371046-13.13918528170052-14.928753365529701,8.499365687192039"/></g><path id="moon" class="cls-6" d="M100.448633916317704,86.296734871596527c-16.54072305592581,6.557183448264368-35.663403196560466-2.540427406751405-42.711725621742517-20.320065594952212-7.048340884889512-17.779684753450965,.646746588891801-37.508573414528655,17.18746964481852-44.065756862793023,9.500289566326501-3.766167977508303,19.848248521126152-2.360005639115116,28.275073019790398,2.881241810217034-11.868517335728029-12.348650625389382-28.676205407704401-17.451349346112693-43.464817673504513-11.588749310780258-20.589851231601642,8.162365770928773-29.468197075233547,34.487870183638734-19.830365346024337,58.799635555192253,9.637831729207392,24.311765371551701,34.142190727292473,37.403422015155229,54.732041958894115,29.241056244226456,13.321853348580589-5.28113770976961,21.731202734824365-18.168961171345472,23.404538968172346-33.192181968155637-3.059860233605832,8.161999722832661-9.178059919906445,14.909224826249556-17.592214950404014,18.244820127045386Z"/><g id="sparkles"><path class="cls-6" d="M193.986001910649065,73.300743075051287c2.842921477091295-.063350491409437,5.629029072240883,1.17044805983187,7.739132909362525,3.076668825179695,2.110103837123461,1.906220765346916,3.58250581631728,4.442797775275722,4.53857625972887,7.120883867415614-.837906832392036-5.219436447848238,1.358545253446209-11.579004326398717,7.366346184489885-13.655183254482836-5.593762309725207,.674252578837695-10.737850360053926-6.966473347508327-11.847012435069701-12.306678096807445,.115590157980478,3.055369820117448-.035750636598095,6.215614323767113-1.326670032360198,8.987287663300776-1.290919395763922,2.771673339534573-3.414575271008289,6.673353629656049-6.470372886151381,6.777020995394196"/><path class="cls-6" d="M112.665472085005604,124.521614300748297c2.484855683246678-.055371500719957,4.920053189659484,1.023030195119645,6.764389571851098,2.689162566506639,1.844336382190704,1.666132371386993,3.131289418180131,3.883227655201154,3.966942845134326,6.224008960593892-.732372515835777-4.562048732364929,1.187436558195259-10.120629408384048,6.438555313182405-11.935313721847706-4.889228273821573,.589330505948965-9.385418734927953-6.089046436641183-10.354881911436678-10.756652709947957,.101031584341399,2.670546169885711-.031247846008227,5.432758063045185-1.15957601934042,7.855339307493523s-2.984509715235617,5.832845130117676-5.655429799390731,5.92345559720161"/><path class="cls-6" d="M128.479689598661025,54.494041270153502c3.16787149166521-.070591543713817,6.272435192951889,1.304231956841249,8.623726934190017,3.428336497900091,2.351291741239038,2.124104541057932,3.991991384808898,4.950615952267071,5.057342055277331,7.934811137352881-.933680788723905-5.816025542364514,1.513828930277668-12.902501178116836,8.208330150383517-15.215990344410784-6.233137388749128,.751320618559475-11.965202103360753-7.762751272888636-13.201142999158947-13.713349107292743,.128802279322372,3.404602985920974-.039836985791226,6.926067982571112-1.478310325566781,10.01454757206011-1.438473339778284,3.088479589490817-3.804866136589226,7.436127549613047-7.209945815125138,7.551644244390445"/></g></g><g id="ghost"><g id="ghost-2"><g id="Shadow" class="cls-10"><path class="cls-8" d="M201.418998830851706,173.578339648547626c-18.244933762483015-12.217055586321294-43.622968046865935-2.800257657226211-54.921452205645437,13.933331247294518-11.298484158779502,16.73358890451982-11.194854249713899,42.74199075609522-9.440275959614155,62.856418337699324,1.754578290100653,20.114427581604104,5.48236936505873,40.515631972688425,1.495416931591535,60.308887192710245-4.29424536789611,21.318815222752164-17.370555537738255,40.844315980059037-17.302003123777467,62.591217536686599,.005102486150463,1.618626800021957,.099840627958656,3.297203139796693,.84785202785406,4.732632432214814,2.14111067738213,4.108777852603453,8.233350433558371,3.992304230385344,12.357429725829206,1.880816859014885,4.124079292268107-2.111487371370458,7.621070620025421-5.601059262709896,12.13761294179676-6.634139309962848,11.423043753037746-2.612820576947342,21.728058239165875,11.531428751513886,33.150621289715673,8.916509772634527,4.341579545675813-.993899284088911,7.782121440362062-4.279069059570247,11.91102778523873-5.94918326318475,14.855471450573532-6.008936123140302,29.872018032676351,10.252582779232398,45.895878658729998,10.084547561837098,1.370752373331925-.014374417491126,2.80871252270299-.175995752466406,3.93536342821244-.956909586177062,1.462371039240679-1.013611325855891,2.094657295307115-2.844207049831311,2.488064828641654-4.579478616844426,5.104140605792054-22.513727435820329-14.86222445864405-43.201943264457441-16.751615050903638-66.209558874390495-1.144215689582779-13.933350328614324,4.438129331862001-27.415876822873543,7.262313521670876-41.107899542250379,7.417585619623424-35.961449197206093-.971661570652941-76.373570431307598-33.066234799340236-99.86719174728205"/></g><g id="Body"><path class="cls-1" d="M201.418998830851706,167.187563015582782c-18.244933762483015-12.217055586321294-43.622968046865935-2.800257657226211-54.921452205645437,13.933331247293609-11.298484158779502,16.73358890452073-11.194854249713899,42.741990756096129-9.440275959614155,62.856418337700234,1.754578290100653,20.114427581604104,5.48236936505873,40.515631972688425,1.495416931591535,60.308887192710245-4.29424536789611,21.318815222752164-17.370555537738255,40.844315980059037-17.302003123777467,62.591217536686599,.005102486150463,1.618626800021957,.099840627958656,3.297203139796693,.84785202785406,4.732632432214814,2.14111067738213,4.108777852603453,8.233350433558371,3.992304230385344,12.357429725829206,1.880816859014885,4.124079292268107-2.111487371370458,7.621070620025421-5.601059262709896,12.13761294179676-6.634139309962848,11.423043753037746-2.612820576947342,21.728058239165875,11.531428751513886,33.150621289715673,8.916509772634527,4.341579545675813-.993899284088911,7.782121440362062-4.279069059570247,11.91102778523873-5.94918326318475,14.855471450573532-6.008936123140302,29.872018032676351,10.252582779232398,45.895878658729998,10.084547561837098,1.370752373331925-.014374417491126,2.80871252270299-.175995752466406,3.93536342821244-.956909586177062,1.462371039240679-1.013611325855891,2.094657295307115-2.844207049831311,2.488064828641654-4.579478616844426,5.104140605792054-22.513727435820329-14.86222445864405-43.201943264457441-16.751615050903638-66.209558874390495-1.144215689582779-13.933350328614324,4.438129331862001-27.415876822873543,7.262313521670876-41.107899542250379,7.417585619623424-35.961449197206093-.971661570652941-76.373570431306689-33.066234799340236-99.86719174728205"/></g><g id="L_eye"><ellipse class="cls-6" cx="165.099479934831152" cy="222.075117987700651" rx="6.205572718148915" ry="9.308359077223031"/><path class="cls-6" d="M164.155748920473343,213.493553869599964c-.126204823884109-.024316283162079-.250908326279387-.053223106378027-.373764858329196-.091177667413831-.048914631625848-.015111393271582-.096819158588914-.033053998377-.145511713070846-.048758533410364-.18015606791414-.058104720728807,.098462341148661,.053654643939808-.009579316753843-.000633447489236-.207683320687465-.104355406244395-.408380152027348-.21053200463939-.598530415048117-.345461296129542-.089612452092297-.063588366786462-.110598070206834-.092867754509825-.012605681825335-.007561674400677-.048684048894756-.042381305769595-.098641172467978-.083140953691327-.146562154094681-.126453656212107-.08634496767263-.07804167969789-.169421410162613-.159664151815377-.248853461759609-.244744360177719-.044181215480421-.047322799086032-.087109015724309-.095784063344581-.129052377877088-.145095959469472-.015036875044643-.01767852604462-.122971371130916-.150932550193829-.043792317951556-.049904390152733,.087644488927253,.111829595057316-.043991609426485-.063287245502579-.059915515988905-.086347569965255-.03671886266693-.053174695774942-.072072785058481-.107264407870389-.106331408933329-.162052218587633-.065905721005947-.105399159666376-.127258204888676-.21361843593877-.183981340557693-.324239392244635-.027255166673967-.053152784418671-.052691282849992-.107129290277044-.078785218176563-.160847552836458-.121631863464245-.25039735460814,.029495994121135,.101566341521902-.022233499540562-.048931839776742-.09266416965238-.269590672886807-.18418883294089-.534287365554519-.245533342811541-.813576477859897-.02896040995256-.131850873122858-.050237533488144-.264748018055798-.073486291260451-.397633734854026-.020740146378557-.118546945392154,.011906251911569,.147979729689723-.00407537332012-.046814618506687-.004914268930406-.059898276890635-.011453130484369-.119642281090819-.016009916925213-.179581509121817-.022786155494941-.29972538484526-.024380614295296-.600014469147936-.012472498667194-.90025603333379,.020755854631716-.523321275592025-.474790484803634-1.023524198561972-1-1-.559557500335359,.02506264902695-.977763525598675,.439347579008427-1,1-.05371878576625,1.354421872277271,.201798091539786,2.795205391532363,.951321231886141,3.946650016013336,.690349401293133,1.060539781020452,1.765925584093566,1.918797417125461,3.028076246586352,2.161979983035053,.512033644679832,.098655144149234,1.103743569322432-.143598323325932,1.230118645762559-.69843942134321,.112511389997053-.493973534369616-.149172121581614-1.124289575354851-.69843942134321-1.230118645762559h0Z"/><path class="cls-6" d="M161.817137109283976,216.336946661848742c-.138632583167237,.014268112199716-.276846967015445,.02147777250957-.416238172878366,.016806893862849-.031084595273569-.001041617880219-.288682614534991-.01077087964768-.129269874768397-.003665963090498,.154673980649932,.006893713311001-.054762109010881-.010424491959384-.089608221001072-.017458031955357-.13549138451981-.027348361629265-.268985464359503-.063706674642162-.399936023504779-.10788273403341-.056001327918239-.018892000188316-.127139672064914-.033389488565263-.177789906845646-.065229161019488,.2034448384602,.127889180514103,.008265323464002-.000133631941935-.039116904476941-.023693519539847-.126013060767946-.062657533775564-.248424820826585-.132400212630273-.367162222082698-.207904719323778-.054253895623333-.034499774981668-.10782242600726-.070072478923066-.160442395977952-.107024133119921-.045650677957383-.032057564200841-.242794316471191-.131162687822325-.044558459427208-.030076390821705-.227423457060468-.115969913153094-.443645734438178-.400927118909749-.608004065960813-.592615505367576-.015592111200021-.018184819775342-.150575011264664-.182874989607626-.071822493120635-.084008563627322,.08081387819766,.101454270864451-.059984515561155-.082930864703485-.074214716798451-.102968245368174-.09809897847299-.138132029316694-.190249378967565-.28046166594595-.277416657211688-.425723744585412-.160178294602701-.266933102603616-.302367193685313-.544491434584415-.432398933283366-.82723415262717-.029677689778509-.064531557442024-.057031724493754-.13018578727133-.087075727748925-.194522297535514-.050260307946701-.107627894680263,.055886215551254,.140501367925935-.015754171764456-.036334319719572-.058903998996357-.145397443508045-.116692498696466-.291170043057718-.17232191761741-.437857581086064-.116200086793469-.30640450647752-.22527806861217-.615434205434212-.334125749506711-.92450699132678-.173342759067054-.492206439482288-.691228524601684-.872831669724292-1.230118645762559-.69843942134321-.486089005441499,.157305081766026-.884480649468969,.701854927187014-.69843942134321,1.230118645762559,.496650760947887,1.410238904864855,1.023417608497766,2.83793185921877,2.029953741925965,3.9736803391379,.928796806583705,1.048029500581833,2.366232637173198,1.813677423565423,3.795860939155318,1.666539596727489,.518734616707661-.053388341642858,1.025903264499902-.421674623522449,1-1-.022210928777895-.495888992974869-.442730370276877-1.057354378173841-1-1h0Z"/><ellipse class="cls-1" cx="161.794575042497399" cy="222.075117987699514" rx="3.304904892333525" ry="5.055093241543773"/></g><g id="R_eye"><ellipse class="cls-6" cx="206.079555120445548" cy="222.075117987700651" rx="6.205572718147778" ry="9.308359077223031"/><path class="cls-6" d="M207.99625502280287,215.488110649352166c1.26215663183757-.243183715984742,2.337712825445124-1.10141866088361,3.028076246662749-2.161979982925914,.749489983138119-1.151393690546684,1.00503609633779-2.592327014830516,.951321232039845-3.946650015976047-.020704719283458-.52203199104315-.445129526326127-1.024852716528585-1-1-.524045899341218,.023472080064494-1.022205755023606,.440122111845994-1,1,.011313807764964,.285257168318822,.010444906971316,.570392917338722-.009350099442599,.855276688975209-.005210990080741,.074995000126364-.012561283585455,.149676138303221-.01913231619983,.224560853477669-.008407623769017,.095814851095383-.011455607696917,.100841466532984,.002669515391972,.002328907507945-.019138992724038,.133480688185045-.042917667991787,.266305299576743-.070914114330662,.398205539222545-.05925569264582,.279172576613746-.144567817769712,.54691127103797-.238552756562058,.815855492912306-.061208171353428,.175151297948105,.031459333004022-.050274320817152-.019986069291917,.049852191870741-.027219817879086,.052977045931584-.05051188908692,.108227191059996-.077247635348613,.161521799764159-.062462465837598,.124511679715397-.130206284782616,.246163358047852-.204064005627515,.364279684768007-.061836619712267,.098891683817783-.129802451645446,.192852770179343-.196864795376314,.288183164991096,.045591137070005-.064808666907084,.085469672800173-.104111307558924,.011993781359706-.019470074781566-.042487802122196,.04894421665449-.084194924735129,.098265260149674-.127984977605593,.146053952920738-.078640643479957,.085821626245888-.160725573156014,.168513288547729-.246343032515142,.247393048912272-.047216512530213,.043500790861799-.099393067937854,.083149766788665-.145621210973331,.127614613744299-.085942876899935,.082664727964584,.142758715488526-.097202062028373-.010832187424967,.010057558681183-.190619337972748,.133118286973513-.38638807523057,.249449020839165-.595068462889685,.351925135667443-.217752260236011,.106931014814108,.124423991228468-.036331725677883-.008587920468926,.00304901448726-.061013357064439,.0180641803463-.120521885033668,.043391474092459-.181425557484545,.062206691276515-.122807601819659,.037939447773169-.247617627557702,.066872480888378-.373764858331924,.09117766739837-.514704175137012,.099169683686341-.85569523160666,.74418189437165-.69843942134321,1.230118645762559,.177583333697839,.548750905509223,.678663520922782,.804690026913704,1.230118645762559,.69843942134321h0Z"/><path class="cls-6" d="M209.80318760944283,218.402945374587944c1.428091817577297,.146979691409797,2.869121499317771-.617478164173917,3.795860939217164-1.666539596587427,1.005297562085616-1.137988581338504,1.532877036848731-2.562231966391664,2.029953742083308-3.973680339059683,.173987295855113-.494036600412073-.1971490756805-1.115940719906575-.69843942134321-1.230118645762559-.559354641154641-.127403117370704-1.043839251160534,.169499429579446-1.230118645762559,.69843942134321-.104107147877585,.295612051232638-.208324009076023,.591231133537804-.318952057676142,.884482420663517-.055371355221723,.146777615565952-.112221380932169,.292994590326998-.171380190937271,.438289438603533-.033295460656518,.081774107758974-.072511852144089,.166882797783728-.014785642588322,.036840409921751-.034602636000272,.077950890009561-.068526057119016,.156114504759898-.104159675518531,.233608920447296-.130037654576881,.282800134018544-.272456982826043,.560113877309959-.432398933318836,.827234152607161-.079777373455727,.133236801816565-.164093112180126,.263748771149949-.253120540228338,.390990606535524-.040548840988777,.057954150346632-.08225208438671,.115017403758429-.124499176885365,.171737713293624,.128701494617417-.17279268656057-.027748409680498,.028823082061535-.045834150052542,.049972233726294-.083506081287851,.097650565676304-.171170789288226,.19186679618997-.262398755057802,.282341509888283-.072634570060472,.072034840140986-.24243673392084,.288151362567987-.345605310931205,.310273995452008l.08045792181656-.060936740950638c-.030791472225246,.023397354174449-.061982995042854,.046245191600974-.093574568451004,.068543512277756-.052343855830259,.03740141921844-.10537757102793,.073843070676958-.159378483682303,.10881955189052-.128862979123369,.083464766553334-.262172796188679,.160222068180701-.399667947192938,.228578920013206-.026522268095505,.013185765004891-.224811202868295,.103064335393356-.088535465325549,.044449486719714,.135849973652512-.058431719332475-.064339078280682,.022550252542715-.092545861023609,.032382238829996-.130582663321547,.045516958340158-.263748541030509,.083253322409291-.398994737959583,.112120939183114-.057781467001405,.012333161919742-.12499737838516,.034873152315413-.184755419913927,.033866442779072,.26029529347943,.00438504588783,.031625179557523-.009113757051637-.033241624440052-.006154894242172-.151920630578388,.006929774185664-.302706446494994,.000017752518033-.453885994827942-.015541697573099-.522044082812499-.053728953032987-1.022470944149973,.498305812554463-1,1,.026323567228246,.58770920274219,.440749864328609,.942441787460666,1,1h0Z"/><ellipse class="cls-1" cx="202.979022934758632" cy="222.075117987699514" rx="3.304904892333525" ry="5.055093241543773"/></g><g id="Mouth"><path class="cls-6" d="M178.589080256192574,241.218160594349683c-.228045888510678,1.856510755236741,.094337016849749,3.710874691198114,.834854892823387,5.42131711078946,.671444441564745,1.550897139035442,1.692826891336153,3.114739064378227,3.165508748395041,4.009234068891601,1.56122328793117,.948274350832435,3.551753192580691,1.004881952503638,5.251850816965998,.414377726754537,1.732783473997188-.601857181038213,3.080026492723846-1.82070104511331,3.913315991145282-3.450496304600165,1.012660426991715-1.980619180374561,1.658943177118999-4.178609076054272,1.353010342267225-6.408068187831304-.073494437796398-.535584368019045-.758814604383588-.827960750564671-1.230118645762559-.69843942134321-.577292613639656,.158648558262939-.772163248429933,.69286262310743-.69843942134321,1.230118645762559,.249001945536293,1.814580172793285-.531485182335018,3.921052180508923-1.476449478646828,5.446848882800623-.921067069533819,1.487210789626261-2.581240346742561,2.319551576712911-4.32299366931602,2.263471224161549-1.794698951113787-.057785077024164-2.938321315688881-1.368927913470543-3.748565513741596-2.83397494840392-.920183408541561-1.66383415952987-1.273437777865183-3.5100536778682-1.041974062786721-5.39438879698173,.065955258546637-.536938629571523-.506820560508459-1-1-1-.595264048369245,0-.933851327335105,.461486795273231-1,1h0Z"/></g><ellipse id="L" class="cls-5" cx="158.893907216682919" cy="240.247666967286477" rx="7.226182595348064" ry="5.748879409758501"/><ellipse id="R" class="cls-5" cx="212.28512783859469" cy="240.247666967286477" rx="7.226182595347836" ry="5.748879409758501"/><g id="Candy_bad"><g id="Pumpkin_shadow" class="cls-10"><path class="cls-8" d="M165.231123833846141,333.283272674272666c-2.398163863886111,.760097630707605-3.997408250064836,3.695587479722235-5.079632032282461,6.04065596275359-1.082223782218534,2.345068483027717-1.448411478566413,4.443842917971779-2.142456922766542,6.941899206427479-.920313705378248,3.312456638512231-1.282891401318011,8.090224129076887-.467599822478405,11.229465358564994,.815291578838696,3.139241229488107,3.011055392607886,5.163167758968484,5.925793191733646,6.36305665778309,2.91473779912485,1.199888898812787,7.019264338715402-.181748759987386,8.433118435688812-3.083649797188627,.876923337305925,3.603586875584369,4.201076282448412,6.595133067841743,7.772435812807998,6.269199741755074,3.571359530358677-.325933326090308,7.506568591083123-2.781820993479414,7.762615974197615-6.488806888055478,1.63694187571673,1.639418047479921,2.637113184773625,2.350356450442632,4.80623877875405,3.065256713991403,2.169125593976787,.714900263546951,4.803259870703187,.607670328055974,6.928699810501712-.887413690332323,1.278959634648345-.899650032033605,2.757792967902787-3.014002945064931,3.241814664832418-4.535635347903735,2.431991530944288-7.645519291121673,1.539003750765914-15.289888201574286-1.539373566267386-22.680860246913653"/></g><g id="Pumpkin_bag"><path class="cls-4" d="M165.231123833846141,331.061933326524013c-2.398163863886111,.760097630707605-3.997408250064836,3.695587479722235-5.079632032282461,6.04065596275359-1.082223782218534,2.345068483027717-1.448411478566413,4.443842917971779-2.142456922766542,6.941899206427479-.920313705378248,3.312456638512231-1.282891401318011,8.090224129076887-.467599822478405,11.229465358564994,.815291578838696,3.139241229488107,3.011055392607886,5.163167758968484,5.925793191733646,6.36305665778309,2.91473779912485,1.199888898812787,7.019264338715402-.181748759987386,8.433118435688812-3.083649797188627,.876923337305925,3.603586875584369,4.201076282448412,6.595133067841743,7.772435812807998,6.269199741755074,3.571359530358677-.325933326090308,7.506568591083123-2.781820993479414,7.762615974197615-6.488806888055478,1.63694187571673,1.639418047479921,2.637113184773625,2.350356450442632,4.80623877875405,3.065256713991403,2.169125593976787,.714900263546951,4.803259870703187,.607670328055974,6.928699810501712-.887413690332323,1.278959634648345-.899650032033605,2.757792967902787-3.014002945064931,3.241814664832418-4.535635347903735,2.431991530944288-7.645519291121673,1.539003750765914-15.289888201574286-1.539373566267386-22.680860246913653"/></g><g id="Handle_shadow" class="cls-10"><path class="cls-8" d="M196.484900226963873,327.653617264599234c-.982854186373515-6.260586849140964-2.278615784560316-15.115062658886018-8.947446676103937-17.878180830517522-6.863175813793532-2.843641728904913-14.362338840471239,1.340212554703612-18.173986757618877,7.06283006240119-2.33704302841943,3.508719493873286-3.974944212630362,7.431459818697476-4.274718914159166,11.66428746703059l.928651597363569-1.619007534651246c-1.730755282397695,.739386023185943-3.696817002585703,1.895688129330665-4.124089702585479,3.889802831314228-.309053439758827,1.442376280821918,.373086085282011,2.804803080896818,1.421571466835303,3.763118951841534,2.729121070719884,2.494417263051218,7.072923290358631,3.27683837501354,10.591932372234623,3.788850491382618,5.085800147468035,.739978566794889,10.245764977289582,.755220918950727,15.333696484949542,.026830003887881,3.352367801564469-.479926714211615,7.378002807074154-1.241432865912429,9.970179103793271-3.612299808371972,1.151318906930101-1.053024032402391,1.794829607475549-2.594731838356893,1.339633608909935-4.138400955147517-.688986049706727-2.336502276346437-3.303730560124677-3.474764656113621-5.374996498638211-4.257404594189211-2.259942055296051-.853932311309109-3.23669991695715,2.769724339701497-.996898545785371,3.616046375824226,.903762432368239,.341491916104133,2.426960587490612,1.031587643346938,2.781831467020311,1.689353699388448,.080364924986497,.148959305486642,.06550289423285-.058801231150937-.033920718804438,.086986518786944,.201019154763344-.294760262397176-.027662053553286,.042458090647415-.106683872214489,.119276813436954,.214964767676065-.208971638179719-.122221013627495,.112589744463548-.186829599317207,.16616158594843-.173707880952861,.14403427909383-.120886263657667,.120066245348426-.369052519796242,.290612987548229-2.208788226778779,1.517940602192539-5.228546944725167,2.021277379497405-7.818631072786957,2.394031714431549-3.767546612752994,.542209929306409-7.6449358196096,.573572289747972-11.432196820546778,.237575364561053-3.080206968112179-.273268747510883-6.342684495351023-.778944663672519-9.203170925786253-2.014429370476137-.584000807508346-.252238241288069-1.197820121086806-.551759053107162-1.708332089930082-.936908464529552-.20549840509284-.155035718260478-.521597258599286-.526879960721999-.551077349479783-.566819836685681-.128397766367925-.173954377674818,.039628162689041-.03856826356423-.009880195604637-.031023138524688,.302030344675586-.046029737091885-.379450628961422,.310683724219416,.134394660793077,.024082236934191,.755356651087823-.421306459256812,1.406483922895859-.943389804393519,2.235217552012728-1.297428338059035,.615527948496492-.262956159444002,.885788735157803-1.013782653073577,.928651597363569-1.619007534651246,.271709612586164-3.836547762733971,2.058940177965269-7.573885136065655,4.348634421041425-10.620107894630564,2.04482922630541-2.720452892514004,5.208043351685774-4.801299489730809,8.63383205565242-5.172454848663619,1.82121832248049-.197313669519644,3.820790254436361,.041280206482043,5.364388958189011,1.088958497788553,1.363018166654001,.925113852705181,2.265880807528447,2.387584582869749,2.943890351589289,3.857460993967834,1.564693498447014,3.392144084273241,2.164782248475603,7.334157237623003,2.73936018558561,10.994105098408909,.156682262782851,.998035036598594,1.410193845540562,1.560580571656828,2.306472460804798,1.309573915019428,1.06633952665652-.298632941663527,1.467859078293259-1.298227264980596,1.309573915019428-2.306472460804798Z"/></g><path id="Bag_hole" class="cls-7" d="M200.953656029572812,333.71769776759902c0,3.06791761225395-8.514007858550031,5.554956231118922-19.016568800693676,5.554956231118922-10.502560942147284,0-19.857630908721148-2.645214335383571-19.857630908721148-5.713131947637521,0-3.067917612255769,9.355069966573865-5.396780514602142,19.857630908721148-5.396780514602142,10.502560942143646,0,19.016568800693676,2.487038618864972,19.016568800693676,5.554956231120741Z"/><g id="Handle"><path class="cls-7" d="M165.696860752017528,332.642917615405167c-.614650246521705-4.171668088794831,.786409417401956-8.303457079622603,2.866533460782193-11.869686689035007,2.035588759345956-3.489876927904334,4.588768838588294-6.47169714458505,8.23824351152598-8.322410455904901,3.338864007220764-1.693197135649825,7.681186270444414-2.366457076954248,11.225907852007367-.893855891259591,3.496988348926607,1.452771133217539,5.234160499498103,5.19051150354062,6.298545337429459,8.58890855889149,1.32642388237764,4.235042491565764,2.19864317921747,8.723261204882874,2.634168319416858,13.137399536175508,.099426319506165,1.007706530719588,.790590131055069,1.875,1.875,1.875,.936861811363997,0,1.975035863146331-.861115617077303,1.875-1.875-.456936643928202-4.631148397122161-1.311554476795209-9.319538677284072-2.658421595702748-13.777477413768793-1.269257533062046-4.201062037804149-3.367570393049391-8.596962296500351-7.369890961756028-10.811946603591423-4.257505959761147-2.356210285091947-9.723082758504461-2.037847664127185-14.112447613232689-.230459864067598-4.500538828091521,1.853165376038305-7.856370533055269,5.098133681365653-10.466412854997543,9.148867921119745-3.104534480885377,4.818176323995431-4.868777743905412,10.282273046397677-4.022271831297076,16.02755944722594,.147275441756392,.999567256527371,1.416744137873138,1.558746134294779,2.306472460805708,1.309573915019428,1.073652803136611-.300681055996392,1.45836626874825-1.296609831731985,1.309573915018518-2.306472460804798h0Z"/></g><g id="Face"><ellipse id="L-2" class="cls-2" cx="169.435932889967262" cy="349.410817604928525" rx="1.830650876528125" ry="1.456397066038335"/><ellipse id="R-2" class="cls-2" cx="191.46025003697514" cy="349.410817604928525" rx="1.83065087652858" ry="1.456397066038335"/><g id="L_eye-2"><ellipse class="cls-6" cx="174.596919158521132" cy="345.415057897912448" rx="2.284487883442353" ry="3.426731825165007"/><ellipse class="cls-1" cx="174.160200038898665" cy="344.496963993388363" rx=".847246300498455" ry="1.295925052945222"/></g><g id="R_eye-2"><ellipse class="cls-6" cx="186.036087878553872" cy="345.415057897912448" rx="2.284487883442807" ry="3.426731825165007"/><ellipse class="cls-1" cx="185.6455834474325" cy="344.496963993388363" rx=".847246300498909" ry="1.295925052945222"/></g><g id="Mouth-2"><path class="cls-6" d="M171.266583766495387,352.397374109423254h18.363015393952082s-7.321904952126715,11.030252243655923-18.363015393952082,0Z"/><rect class="cls-4" x="182.872032333005336" y="351.618699224785814" width="1.79778772631289" height="2.73263734399552"/><rect class="cls-4" x="179.985931689072459" y="355.933389767938934" width="1.79778772631289" height="2.73263734399552"/><rect class="cls-4" x="176.652488690348036" y="351.618699224785814" width="1.79778772631289" height="2.73263734399552"/></g></g></g><g id="R_arm"><path class="cls-1" d="M203.226058574044146,297.12778920947494c-3.937744727612881,5.597986545835738-6.982941114030837,11.869279823687975-8.974910076742162,18.482976495259209-.584644070209833,1.941120816256444-1.044891880732393,4.184412170310679,.006301750963758,5.901238020198434,1.41700057279013,2.314267737478076,4.745034598219718,2.297676713127657,7.189211196073302,1.252609664856209,4.685037779559934-2.003201162033292,7.882735283454167-6.475464090548485,10.838466394256102-10.743645263883081"/><path class="cls-2" d="M202.362587888896087,296.623070061401449c-2.259417003320777,3.235854612647017-4.232688404643341,6.660563967796406-5.872204892391892,10.251461525185732-1.553789887877429,3.403137665749455-3.232635015810956,7.162197734083747-3.75660532067559,10.891748636902776-.42855350967875,3.050386852246447,.939849023496208,5.956396291769124,4.155124748074741,6.548753481640233,3.093305068983682,.5698862726058,6.107418822339241-.903595615076483,8.495180718162374-2.747986117310575,3.170650133895833-2.449120661107372,5.503584506628613-5.780087566457951,7.764515381677484-9.041360313840414,.735026625799946-1.060236882860409-.997783735254416-2.061209471439724-1.726941370296117-1.009438296146982-2.223845022184832,3.207778373633118-4.540103086710587,6.582693213886159-7.773616532045708,8.863550814028713-2.146057287451185,1.51378714119528-7.295778204768794,3.794523821974508-8.769466392812319,.153519995006718-.75188984549095-1.857675067971286,.15282494359235-4.1319288772047,.731125690976114-5.918895867405809,.65090952119499-2.011330321189234,1.397648143058177-3.992814982926575,2.247977842403998-5.928403022207931,1.705523037688181-3.882247080176967,3.804990047912725-7.57785009959116,6.231851497223033-11.05351253970548,.738487513104701-1.057634877559394-.994559098309765-2.058329470082754-1.726941370296117-1.009438296146982h0Z"/></g><g id="L_arm"><path class="cls-1" d="M161.810700173432451,297.127789209358525c3.937744727370955,5.597986546021275,6.982941113516972,11.869279824013574,8.974910075942717,18.482976495677576,.58464407012525,1.941120816283728,1.044891880550495,4.184412170357973-.006301751221145,5.901238020196615-1.417000572889265,2.314267737414411-4.745034598317943,2.29767671290756-7.189211196126962,1.252609664521515-4.685037779473532-2.003201162251571-7.882735283173133-6.47546409091774-10.838466393790441-10.743645264385123"/><path class="cls-2" d="M160.947229488285302,297.632508357432016c2.427229010089832,3.476188847584126,4.524224926593888,7.171668552649862,6.231851496744639,11.053512539996518,.851204837706973,1.934992368362145,1.59713787117289,3.917287613172448,2.247977842135697,5.92840302231707,.577796935572223,1.785410196565863,1.4831490910301,4.060890829225173,.731125690696899,5.91889586743855-1.474484537938224,3.642971347753701-6.619849031781996,1.357544227956168-8.769466392833237-.153519995483293-3.234976671391451-2.274012854741159-5.551964703789054-5.658936006850126-7.773616531646439-8.863550814405244-.72836779345198-1.050631870835787-2.46270631689913-.051863575376046-1.726941370293389,1.009438296146982,2.015006669638751,2.90654013823405,4.079726076442057,5.87652182725833,6.759447651584196,8.218816462056566,2.305979912654038,2.015614020303474,5.267402396897523,3.830230146257236,8.444066945688064,3.691317112297838,3.06518670411333-.134038195779794,5.300805529498575-2.255244535892416,5.312569805111707-5.385397839385405,.006930589996045-1.844041221302177-.613003761345681-3.656975413645341-1.18572999809021-5.386456158747023-.603943143549259-1.823747492071561-1.293378234583543-3.616751352557912-2.050162374768661-5.382337049399212-1.757797956377544-4.100961905676741-3.940314865485561-8.001005256950521-6.494181394034968-11.65855973898033-.731588889553677-1.047754920657098-2.466171204510829-.049259706727753-1.726941370294298,1.009438296146982h0Z"/></g><path id="Hat_shadow" class="cls-9" d="M156.461071297492708,170.778817564985729c-3.907348632813409,2.928588867188409-7.323181152344659,6.431640625-9.963500976563409,10.342041015625-3.197875976561591,4.736206054688409-5.48101806640625,10.21624755859375-7.07318115234375,16.09454345703125,12.864013671875,1.996337890625,28.95849609375,3.1859130859375,46.43695068359375,3.1859130859375,15.20697021484375,0,29.3621826171875-.9019775390625,41.260009765625-2.4503173828125-5.1322021484375-10.455505371092841-12.37548828125-19.97052001953125-21.98699951171875-27.8624267578125-6.1568603515625-.32366943359375-12.61431884765625-.496826171875-19.27301025390625-.496826171875-10.42120361328125,0-20.351196289061591,.4232177734375-29.400268554686591,1.18707275390625Z"/><path id="Witch_Hat" class="cls-8" d="M219.073375984991799,168.865182311079479c-.56427001953125-1.4703369140625-1.23883056640625-2.910461425780341-1.920654296875-4.28094482421875-12.51031494140625-25.14678955078125-27.25811767578125-49.179931640625-44.0123291015625-71.72247314453125-6.62188720703125,10.052185058594659-9.95513916015625,21.8563232421875-13.19415283203125,33.449645996094659-3.5159912109375,12.584594726561591-7.031982421875,25.169250488280341-10.5479736328125,37.753845214842841-.4923095703125,1.7620849609375-.984619140625,3.53045654296875-1.45025634765625,5.305725097657159-22.924438476561591,2.657165527342841-38.377197265625,7.6455078125-38.377197265625,13.365783691405341,0,8.5078125,34.15643310546875,15.40478515625,76.29052734375,15.40478515625s76.29052734375-6.89697265625,76.29052734375-15.40478515625c0-6.10394287109375-17.583251953125-11.3780517578125-43.0784912109375-13.87158203125Z"/></g></g><g id="left-tree"><g id="l_tree"><path class="cls-8" d="M82.690533763654457,343.831124812475537c2.817470540339855,28.81582930750119,2.759014621591632,57.972844364134289-.172805361876271,86.192957806655613-.520281533018533,5.007964519172674-1.844074147117681,11.021226990593277-5.241496776591703,11.447336858620474-2.147442495255746,.269334455664648-4.251593993016286-2.091496642116908-5.365542744542836-4.979275052062803-1.113948751532007-2.887778409944076-1.444093456841074-6.219851035893953-1.736619248375064-9.454727974482012-2.814447051800926-31.12335116291797-4.12720532205185-63.336794473207192,2.41637557067952-92.249951954485368,.911453615091887-4.027308361659379,3.097750057651865-8.74285406362651,5.865571888713021-7.128040731209694,.891672446326993,.520222690194714,1.584941775610787,1.633826954188407,2.175636607068554,2.77714811180158,1.905170370216183,3.687558547862864,1.706251056479232,8.885186832760155,2.058880064924779,13.39455293516221"/><path class="cls-3" d="M67.072565830478197,147.258364815424102c5.362647326900515,9.448530018675228,13.17655865773304,31.595884777818355,19.98534433396253,40.443322182873999,8.10472212804325,10.531398849171637,16.808463823837883,21.303832688025068,20.456118622328177,34.528230870956577,1.025487003904345,3.717853801501406,1.513926820078268,7.974857416254054-.25635489688284,11.137977160037735-2.296262726401437,4.102936550616505-7.399436535724817,4.690322001208187-11.737081659091928,3.854651631252636-6.646486703834853-1.280480962529509-13.350723720981478-4.956651676146976-19.753456479827037,1.843774756336643-2.217243152893388,9.64632080417141,4.66005624473928,11.471134507954048,10.017441223119022,12.889695618318001,15.345378747177165,4.063234909690436,29.442568582121567,15.292282218941182,38.261359819673089,30.476892187236444,3.838133159916651,6.608678852120647,6.450905276154117,16.122508247701262,1.715931971960345,21.391248327152425-3.268213010264844,3.636633370915661-8.67415529063237,3.413591358425037-13.208429267389874,1.805748197028151-7.082833150112492-2.511556403977011-13.586756157793388-7.821701917766404-21.81112898502397-4.050068574479155-.140631742563528,.064492622172111-.274705408647606,.1641285329315-.382481928951165,.283937191186851-7.486997818995405,8.322843978538003,.09228763603187,16.626729568346491,6.374233448278574,21.963917407805639,16.863400154707961,14.3272699726258,33.141278614619296,32.279570942648206,38.418283482560582,55.20833592942472,.475154781605852,2.064563260213617,.852133296516513,4.269707027167897,.281205027169563,6.240819639073379-.590204532484677,2.037662687518605-2.116266851913679,3.510149372012165-3.767142879162748,4.509876170994175-5.241125977604497,3.173887120326981-11.814534103051301,2.349571581902637-17.694057378258549,.308784054430362-5.879523275207248-2.040787527470457-11.511096519181592-5.208086662087226-17.50488885096911-6.614343012921381-18.58909397181742-4.361353934154977-35.617130512830954,8.624366514924986-52.241261560100611,17.687879354851248-5.782962539903565,3.152884344475751-12.954862790076731,5.777023323260437-18.595997254553367,1.665939357557363-2.972971170573146-2.166609285726736-4.873027690630806-5.831942742182946-6.249045821332402-9.518694578475333-2.50244368208314-6.704772423638133-3.615323343263299-14.507182492592619-.984630503407061-20.846019375681863,2.839180874346312-6.841203954987577,9.347739614899183-10.510223094817775,15.726144346434012-12.718928764605153s13.185884940004144-3.492291604765342,18.753570967304768-7.555660824464212c2.188031072500962-1.596853540535449,4.22133826508616-3.748623201065129,4.923905492218182-6.633380874945942,.827068322580089-3.395961799160432-.36644915895431-7.187209515908762-2.250987086277746-10.149407339566096-6.900374412827659-10.846305531813414-20.822908566921797-11.599173223758044-31.684999640461683-8.050160732107543-6.782455258547088,2.21605721769447-14.422474898181463,5.605078560492984-20.1484544856512-5.582378668481397-.272721160153196-.532844427409145-.450092830386893-1.12682670718641-.519033426552596-1.728974800529613-1.663686985790264-14.531147134171988,7.033229813842809-23.962142868454976,16.175763505736541-30.747615902118923,6.858354695443268-5.090184232240063,14.380037571064349-9.325969278068442,19.963347102058833-16.126126402874434,1.290506293478757-1.57176413959678,2.535104590509036-3.710106359776546,1.849102892148949-5.816083433111999-.372196087767406-1.142615935725189-1.251525340650005-1.996155955483118-2.172886416569781-2.626447214330256-10.82178832954196-7.403046222429111-25.56293995703254,10.11180640128805-35.313842347572972-2.655958820576416-.158545234454323-.207598050872548-.308452197573388-.432609557530668-.442305271579244-.661174645774736-5.579604527057199-9.527631775015834-3.431188422850937-21.659248665479026,2.239530805323739-29.842109477621307,6.397601084240705-9.23175299243303,25.505183166122151-17.388911564704358,28.356927890387851-20.343067958842767,9.212943866811656-9.641100312908748-8.871043538559206-7.371417017022395-13.786226309431186-11.399999745855894-2.7187029759898-2.228304223016494-3.631490288842542-6.560005231578543-2.892131863530267-10.147916874170733,.739358425311366-3.58791164259128,2.820953716638542-6.546255107092293,5.077378693068567-9.111178878510145,11.298926130549262-12.843716976776705,28.914727196958665-19.963953387775291,31.774407017007434-39.350575656084402,1.621056191829666-10.016537404249902,2.726369875085766-12.663156566318321,13.046834527615829,6.03524062512588"/></g></g><g id="rose"><g id="rose-2"><g id="Stem"><path class="cls-3" d="M261.984222237875656,386.128515194988722c5.798037992532045,14.881560827350768,10.447814143852156,30.257479867437723,13.745507173582155,45.453759189218545,.585212004947607,2.696744034325093,.995488642007331,6.011281750485068-.357293064807891,6.607436400599909-.855066265261485,.376816823578338-2.113672360424971-.637538798744572-3.042567207008688-2.037951766860715-.928894846589174-1.400412968117962-1.601161705504637-3.120742784132744-2.242111459558146-4.793951849507721-6.166697389131514-16.098254598749918-11.880015408507461-32.935352585787768-13.77806497831989-48.891935335210292-.264379207184902-2.222589400947982-.105843141376681-4.947384918930766,1.310770772426622-4.398855835128415,.456371665939514,.176712179989408,.924880550797752,.687910576820286,1.355248001635118,1.225991096473081,1.388065886349068,1.735473385020669,2.138104451662002,4.497050884383498,3.008510762050719,6.835508100415609"/><path class="cls-3" d="M264.150525122233375,412.030961043890784c.025334799245684-5.27551120957105,.926947713685877-10.728832100536238,3.860972109179784-15.113254664682245,2.934024395495726-4.384422564147826,8.242361263161001-7.455712382936326,13.444950799470462-6.581228254413872,1.661827634452493,.279330314398976,3.468239282548893,1.181911303661764,3.818599323363742,2.830226887548633,.191074557487809,.898936622977999-.107248123114914,1.843842393131126-.59704026894542,2.621466836812033-1.523062715994456,2.418108993586429-4.55420001159473,3.306923013813503-6.908945762774238,4.926226337107437-4.870460914655268,3.349299309964408-6.659817477691831,9.960672346520369-5.730095980270562,15.798035930640253,.100674813253136,.632097356981831,.213648446368097,1.336826678953003-.14783928866018,1.865039199345119-.339397985582764,.495933853768292-.988526614573857,.664644466676691-1.586123116408999,.728045193680373-2.287713249632361,.242709551317603-6.154477814954589-1.635944323668809-6.154477814954589-7.074557466037732"/></g><g id="Flower"><path class="cls-8" d="M273.369666935477653,348.670182792262494c-.11077880859375-.4466552734375-.272216796875-.9449462890625-.49627685546875-1.49346923828125-.20733642578125-.5435791015625-.42132568359375-1.01513671875-.6383056640625-1.35980224609375-.00054931640625-.00091552734375-.001220703125-.0013427734375-.00177001953125-.00225830078125-1.09808349609375-2.0692138671875-3.02874755859375-4.7008056640625-6.36480712890625-7.9268798828125-9.78759765625-9.46490478515625-26.2257080078125-2.50152587890625-29.54315185546875,4.47723388671875-1.5225830078125,3.202880859375-3.94036865234375,6.0167236328125-5.9063720703125,8.234130859375-1.6256103515625,1.8333740234375-3.5621337890625,3.38592529296875-5.77996826171875,4.427734375-7.47998046875,3.5137939453125-1.7060546875,8.42059326171875-1.7060546875,8.42059326171875,3.05194091796875,5.22467041015625,6.687255859375,9.89263916015625,10.5335693359375,14.56353759765625,5.1143798828125,6.21087646484375,11.83209228515625,12.281982421875,19.87701416015625,12.1749267578125,7.237548828125-.09625244140625,13.60723876953125-5.43310546875,16.90484619140625-11.87646484375,3.29766845703125-6.443359375,4.06396484375-13.8548583984375,4.482666015625-21.0809326171875,.1011962890625-1.746337890625-.5120849609375-5.6556396484375-1.36138916015625-8.558349609375Z"/><path class="cls-5" d="M244.317149471562516,353.679694396383638c3.46424757873865,1.93149990639904,7.935957548652368,1.756755444061127,11.215389202750885-.514773433042137,3.593365683998854-2.488978206632964,5.885025791652879-8.091969686736775,1.620469017892901-11.152288157016301-6.840164319506584-4.908618249741266-17.892350510275719-1.753336382933412-19.534366142690487,6.920895199509687-.772949227819481,4.083237985814776,.568365180224646,8.182967104479758,4.006737510644598,10.636570605589441,3.177832634668448,2.267683813468466,7.383379755327041,2.409430211237122,11.07358182653843,1.590457996795521,7.835052979069587-1.738845343619687,15.6375267207859-8.623266735232392,15.584046760779529-17.110635609171368-.026337200308262-4.17976255200665-1.926183715388106-8.244625591310978-5.499320342669307-10.523553587314382-3.730954224529341-2.379583240441207-8.582093060247644-2.440630326849714-12.809131845484444-1.761465069346741-4.209927503266954,.676415959751466-8.213384378994306,2.51677730452684-11.57027850277882,5.124475980743227-3.36440983437933,2.613537021976299-5.618708863248685,6.034952556856297-7.919370532830726,9.559820972895977-.983452078162372,1.506757475397535-1.991517063339415,2.991928282130175-3.263421109379124,4.273891945415016-1.326538522158444,1.337030248982046-2.859072166116675,2.061947481312018-4.53080663568835,2.877404590009974-1.891656855888868,.922733279972817-3.600784415317321,2.377420160541078-4.121693218774453,4.50474334433784-.542338630673839,2.214839785470758,.310101319142632,4.399708680441108,1.688088542508922,6.117064844671404,2.992552451549273,3.72955446342894,7.789122998212406,4.374448119689987,12.279329826922549,4.140446865223566,2.301507636375391-.119940059470537,4.610930621860462-.370777469439417,6.912953175096845-.120639750392002,.983942927226963,.106915216421839,2.348876239615493,.31687554009477,3.482177156076432,.437547931484005,4.949664767471404,.527033796055548,10.160474645126669,.48054982681424,14.888841395553754-1.250280984326309,6.054540304101465-2.216280051603462,10.618350688951978-6.833421877643559,13.342079536749225-12.631829176163592,.903775194807167-1.924000874763806,1.647644010272415-3.91616950617572,2.255841398118719-5.952006721954604,.923014532603702-3.089634013114846-3.901094988043042-4.409746239987726-4.821395167764422-1.329198061048373-.882886158084148,2.955311110905313-2.053615967693986,5.786861159613181-3.772973843106229,8.359911339317478-1.202849842535215,1.800086560073396-3.038128971511469,3.69624892568936-4.635700679771617,4.786488130144789-.898850051542468,.613406935071907-1.848212979170057,1.132743902880975-2.831263374240734,1.596807788395381-.350981495712404,.165686151452974,.068788076281635-.00836958576474-.412952084829158,.176652481899509-.225920950273576,.086769517518405-.451820173397209,.172879705167361-.680062219662432,.253438465000727-.527772937457485,.186279145364097-1.062865652256733,.351099031875492-1.603447772489744,.495990063031059-.497214788281781,.133267381002952-.998918417382811,.249579460880341-1.503806901964708,.34992578740821-.231684136730109,.046047102965531-.464107009360305,.0886494416809-.696998029325187,.128134112483167-.143136121228963,.024267499142297-.973504581872476,.140389482698083-.498774098105059,.081078861621791-1.000119184835057,.124950244467982-2.007202202545159,.19379425745683-3.014607946777687,.21968995977295-1.972950251105431,.050715347493679-3.946762796183975-.067721559893471-5.908440893888837-.273628026739971-.453963378928165-.04765001737178-.907411718442745-.100100303376166-1.360422953828675-.156066217034095-.204027239431525-.025205933039615-.407867620040633-.051825406457283-.611798631529382-.077782951511836-.442809611500707-.056363425834206,.361837249121891,.0505773919067-.232008013606901-.031340070130682-1.912827396648936-.263863291474991-3.77228456255034-.32809292688944-5.701226388973737-.221818690750297-3.219876221692175,.17739772202367-7.275329648547995,.909005948735285-10.055971127925659-1.198275136021039-.735620346442374-.55748245615905-1.825873506360949-1.730107678857166-1.682285263041194-2.589547292140196,.168917374567172-1.011045749428376,1.931386233827652-1.549299015950965,2.778764641358066-1.944092657493456,3.134589558589141-1.460405428762897,5.412379279941888-3.872487710423229,7.386307599170323-6.657999605335135,1.851029911307705-2.612083623076614,3.350972133979667-5.501183835382108,5.554243814389338-7.847796013682455,4.338077840320693-4.620304604750345,11.316612242155315-7.542110554624742,17.692604222511363-6.384833729189268,3.001358465409794,.544762698502382,5.345876954756022,2.166503198257487,6.168605738224869,5.191574704889717,.778358791729261,2.861928560307206,.024025523674936,5.741036862289548-1.640549541878499,8.136745631707527-3.088285697880565,4.444757873639901-9.938181321309457,8.035733135862756-15.344828549932572,6.318225000031816-5.352266073108694-1.7002330903033-4.289650056896789-9.192695657713557,.464781983264402-11.004961006015947,1.277193870890187-.486832954120473,2.702027723897118-.643149135108615,4.057975812644145-.485804033976819,.778401841376763,.090326257670313,1.578972970613904,.309484967287062,2.307494042861435,.594184046711234,.432846865496685,.169152422398838,1.337069578326918,.459684600225955,1.598718888541043,.845847062737448,.44487340059095,.656578867870849-.531668280053054,1.846630947165977-1.03574175398353,2.333051958310534-.824798924692004,.79591477768372-1.985317261342061,1.30222477631105-3.069415114032381,1.471462945399253-1.212275596064501,.189247955617247-2.403282961946388-.023189631005152-3.472377671279901-.619266061477902-2.813236570191293-1.568527089504641-5.337477957833471,2.748466353978074-2.523595740363817,4.317353425736655h0Z"/></g></g></g></svg>