<?xml version="1.0" encoding="UTF-8"?><svg id="Layer_1" xmlns="http://www.w3.org/2000/svg" viewBox="0 0 339.52 356.39"><defs><style>.cls-1{fill:#f1b08d;}.cls-2{fill:#f1944b;}.cls-3{fill:#655c37;}</style></defs><g id="pumpkin"><path class="cls-3" d="M165.03,83.54c1.54-16.69-2.27-33.84-10.74-48.31-4.13-7.06-10.28-14.02-18.43-14.73,5.35-6.14,9.79-13.08,13.14-20.5,7.46,5.37,12.32,13.55,16.73,21.61,2.82,5.16,5.57,10.42,7.12,16.09,4.23,15.47-2.78,30.62-7.82,45.84"/><path class="cls-2" d="M146.55,39.99c-32.83-17.51-75.77-3.62-100.88,23.84S10.06,129.03,4.77,165.86C.29,197.1-1.04,228.79,.81,260.3c1.09,18.53,3.45,37.55,12.43,53.8,8.98,16.25,25.97,29.25,44.52,28.58,17.78-.64,34.12-15,37.03-32.55,4.24,20.72,21.59,37.56,41.88,43.52s42.81,1.81,61.07-8.87c14.32-8.37,26.62-21.13,31.68-36.92,8.19,17.11,26.61,28.83,45.58,28.99,29.14,.25,53.62-25.31,61.09-53.48,7.47-28.17,1.55-58.08-6.36-86.13-10.86-38.54-25.46-76.04-43.51-111.78-11.32-22.42-25.48-45.52-48.45-55.67-29.06-12.83-62.12,30.94-91.21,10.2"/><path class="cls-1" d="M93.43,79.1c-17.58-8.34-25.25,10.36-30.54,22.14-9.21,20.5-14.75,42.63-16.28,65.05-.95,13.91-.38,27.98-2.95,41.68-3.24,17.35-11.49,34.32-9.16,51.82,.42,3.18,1.38,6.6,4.01,8.43,1.66,1.16,3.77,1.5,5.79,1.44,12.92-.4,20.29-14.91,22.97-27.55,6.55-30.86,2.39-64.25,15.48-92.96,5.35-11.74,13.42-22.22,17.57-34.43,4.15-12.22,3.24-27.63-6.89-35.62"/><path class="cls-1" d="M165.21,93.42c-19.16-3.37-21.59,16.7-23.56,29.46-3.43,22.21-2.89,45.02,1.59,67.04,2.78,13.66,7.06,27.07,8.23,40.97,1.48,17.59-1.96,36.14,4.93,52.39,1.25,2.95,3.09,6,6.11,7.07,1.91,.67,4.03,.45,5.96-.15,12.35-3.82,15.6-19.76,14.82-32.66-1.89-31.49-14.76-62.58-9.77-93.73,2.04-12.74,7.04-24.98,7.79-37.86,.76-12.88-4.22-27.5-16.11-32.51"/><path class="cls-1" d="M233.67,86.52c17.8-7.86,24.96,11.05,29.93,22.97,8.64,20.74,13.57,43.02,14.49,65.47,.57,13.93-.38,27.98,1.8,41.75,2.77,17.43,10.54,34.62,7.74,52.05-.51,3.17-1.56,6.56-4.24,8.32-1.69,1.11-3.81,1.4-5.83,1.28-12.9-.76-19.87-15.46-22.21-28.17-5.7-31.03-.63-64.29-12.93-93.35-5.03-11.88-12.81-22.58-16.62-34.9-3.82-12.33-2.48-27.71,7.86-35.42"/><path class="cls-3" d="M160.62,45.9c11.53,4.13,23.84,5.6,35.96,3.6,9.4-1.55,21.76-4.91,21.02-16.64-.51-8.01-5.53-17.85-15.1-14.25s-9.3,15.68-8.1,24.12c1.37,9.66,5.15,19.58,13.52,25.26,9.12,6.18,21.93,6.89,32.43,4.8,7.59-1.51,20.34-7.3,15.51-17.44-4.3-9-15.71-4.07-19.24,2.67-10.36,19.76,.48,46.01,17.91,57.59,3.23,2.14,6.23-3.05,3.03-5.18-10.51-6.98-17.34-18.76-18.45-31.32-.54-6.03-.09-13.4,3.07-18.72,1.03-1.73,2.5-3.42,4.57-3.77,2.62-.44,4.19,1.43,3.6,3.94-.97,4.18-7.14,5.5-10.72,6.27-14.96,3.24-31.95-.76-37.32-16.45-2.01-5.86-3.51-13.42-2.3-19.6,.7-3.52,4.57-9.41,8.78-5.93,2.63,2.17,3.42,8.27,2.44,11.23-2.38,7.14-17.02,8.07-23.24,8.3-8.84,.33-17.47-1.28-25.77-4.26-3.64-1.3-5.21,4.49-1.6,5.79h0Z"/></g></svg>