<?xml version="1.0" encoding="UTF-8"?><svg id="sparkles" xmlns="http://www.w3.org/2000/svg" viewBox="0 0 347.29 89.68"><defs><style>.cls-1{fill:#231f20;}</style></defs><g id="sparkles-2"><path class="cls-1" d="M139.69,48.47c9.58,1.4,18.22,7.13,24.22,14.73,6,7.6,9.49,16.95,11.18,26.48,.16-17.99,11.15-38.08,32.49-41.63-19.16-.92-32.07-29.49-32.75-48.04-1.35,10.32-3.66,20.84-9.57,29.4s-15.26,20.45-25.57,19.06"/><path class="cls-1" d="M0,52.54c7.5,1.1,14.28,5.59,18.97,11.54,4.7,5.95,7.44,13.28,8.76,20.74,.12-14.09,8.73-29.83,25.45-32.61-15-.72-25.12-23.1-25.66-37.63-1.06,8.08-2.86,16.32-7.49,23.03-4.63,6.71-11.95,16.02-20.03,14.93"/><path class="cls-1" d="M294.12,52.54c7.5,1.1,14.28,5.59,18.97,11.54,4.7,5.95,7.44,13.28,8.76,20.74,.12-14.09,8.73-29.83,25.45-32.61-15-.72-25.12-23.1-25.66-37.63-1.06,8.08-2.86,16.32-7.49,23.03-4.63,6.71-11.95,16.02-20.03,14.93"/></g></svg>